<svg width="10" height="16" viewBox="0 0 10 16" fill="none" xmlns="http://www.w3.org/2000/svg">
<path d="M1.60862 16C1.39813 16.0012 1.18948 15.9608 0.994619 15.8813C0.799759 15.8017 0.622526 15.6844 0.473083 15.5362C0.323179 15.3875 0.204197 15.2106 0.123001 15.0157C0.0418044 14.8208 0 14.6118 0 14.4006C0 14.1895 0.0418044 13.9805 0.123001 13.7856C0.204197 13.5907 0.323179 13.4138 0.473083 13.2651L5.75092 8.00326L0.473083 2.74142C0.171921 2.44026 0.0027302 2.03179 0.0027302 1.60589C0.0027302 1.395 0.0442667 1.18618 0.12497 0.991341C0.205673 0.796506 0.323963 0.619474 0.473083 0.470353C0.622203 0.321233 0.799234 0.202945 0.994069 0.122241C1.1889 0.041538 1.39773 0 1.60862 0C2.03452 0 2.44299 0.169191 2.74415 0.470353L9.14152 6.86773C9.29143 7.01641 9.41041 7.19329 9.4916 7.38819C9.5728 7.58308 9.6146 7.79213 9.6146 8.00326C9.6146 8.21439 9.5728 8.42343 9.4916 8.61833C9.41041 8.81322 9.29143 8.99011 9.14152 9.13879L2.74415 15.5362C2.59471 15.6844 2.41747 15.8017 2.22261 15.8813C2.02775 15.9608 1.8191 16.0012 1.60862 16Z" fill="white"/>
</svg>
